<svg class="fill-current" width="118" height="36" fill="#ffffff"><g fill-rule="nonzero"><path d="M87.227 13.315h-1.673a.414.414 0 00-.392.278c-.08.233-.138.4-.171.5l-2.998 9.01c-.024.071-.113.288-.268.653a.207.207 0 01-.381 0 10.28 10.28 0 01-.26-.654l-3.046-9.294-.067-.206a.414.414 0 00-.395-.287h-1.64a.414.414 0 00-.392.55l.053.151 4.64 12.957.011.028a.414.414 0 01-.003.293l-.08.272a2.053 2.053 0 01-1.927 1.332H76.51a.414.414 0 00-.414.415v1.339c0 .228.185.414.414.414h1.73c1.681.004 3.213-.978 3.885-2.499l.078-.189c.02-.052 1.249-3.452 5.303-14.667a.295.295 0 00-.278-.396zm-22.03 11.563c.35.124.76.186 1.228.186 1.387 0 2.485-.6 3.283-1.334.645-.637.967-1.438.967-2.398v-1.05a.207.207 0 00-.225-.207l-.316.029-1.302.171-2.574.39c-1.383.224-2.227.773-2.495 1.631-.073.2-.112.415-.112.638 0 .907.648 1.676 1.546 1.944zm7.78.9v.81a.414.414 0 01-.415.415h-1.341a.414.414 0 01-.415-.408l-.022-1.339a.104.104 0 00-.176-.072l-.236.231c-1.072 1.059-2.549 1.588-4.445 1.588-1.361 0-2.473-.361-3.346-1.084-.863-.713-1.292-1.7-1.292-2.978 0-.671.127-1.252.38-1.744.254-.492.581-.871.984-1.142.42-.282.818-.488 1.191-.62.38-.133.773-.233 1.178-.3 1.997-.276 3.084-.43 3.281-.466.173-.02.823-.105 1.959-.256l.229-.028a.207.207 0 00.184-.206v-.57c0-.852-.226-1.517-.682-1.987-.464-.477-1.3-.707-2.52-.707-.653 0-1.202.073-1.648.22-.463.152-.813.377-1.045.675a2.941 2.941 0 00-.454.775 1.764 1.764 0 00-.072.27.414.414 0 01-.407.338h-1.538a.414.414 0 01-.414-.44l.007-.079c.018-.153.04-.283.063-.384.082-.355.242-.728.483-1.122.238-.388.55-.729.937-1.022.385-.29.922-.533 1.61-.723.695-.193 1.504-.29 2.426-.29 3.738 0 5.556 1.458 5.556 4.425v8.22zm30.652-12.16v12.916c0 .229.186.414.415.414h1.671a.414.414 0 00.414-.414V13.618a.414.414 0 00-.414-.414h-1.671a.414.414 0 00-.415.414zm0-4.103v1.632c0 .23.186.415.415.415h1.671a.414.414 0 00.414-.415V9.515a.414.414 0 00-.414-.415h-1.671a.414.414 0 00-.415.415zm10.31 5.856h3.53a.414.414 0 00.414-.414v-1.339a.414.414 0 00-.414-.414h-3.53a.207.207 0 01-.207-.208V9.515a.414.414 0 00-.414-.415h-1.671a.414.414 0 00-.415.415v3.481a.207.207 0 01-.207.208h-1.537a.414.414 0 00-.415.414v1.339c0 .229.186.414.415.414h1.537c.114 0 .207.093.207.207l.002 7.348c.075 2.24 1.945 4.022 4.226 4.022h1.878a.414.414 0 00.415-.414v-1.339a.414.414 0 00-.415-.414h-1.878c-.954 0-1.728-.762-1.728-1.7v-7.502c0-.115.093-.208.208-.208zm-54.51-.717c0-3.022-2.457-5.49-5.521-5.554h-7.956a.414.414 0 00-.415.415v17.018c0 .23.186.415.415.415h1.671a.414.414 0 00.415-.415v-6.119c0-.114.093-.207.207-.207l5.66-.001c3.067-.062 5.523-2.53 5.523-5.552zm-2.203 0c0 1.87-1.54 3.386-3.44 3.386h-5.541a.207.207 0 01-.207-.208v-6.357c0-.114.092-.207.207-.207h5.54c1.9 0 3.44 1.516 3.44 3.386zM92.7 20.156h6.284a.414.414 0 00.414-.415v-1.339a.414.414 0 00-.414-.414H92.7a.207.207 0 01-.207-.207v-6.306c0-.114.093-.207.207-.207h7.717a.414.414 0 00.414-.414v-1.34a.414.414 0 00-.414-.414h-10.01a.414.414 0 00-.414.415v17.019c0 .229.185.414.414.414h1.672a.414.414 0 00.414-.414v-6.171c0-.115.093-.207.207-.207zM18.2.044c10.043 0 18.185 8.013 18.185 17.898S28.243 35.84 18.199 35.84C8.156 35.84.014 27.827.014 17.942S8.156.044 18.199.044zm-3.388 9.57h-2.696c-.2 0-.368.141-.407.33l-.008.084.001 14.266-.001.081c0 1.734 1.428 3.138 3.188 3.138 1.761 0 3.189-1.404 3.189-3.138 0-.03 0-.047-.002-.062l-.002-3.56c0-.096.064-.176.152-.2l.055-.008h4.238c2.97-.12 5.324-2.528 5.324-5.463 0-2.941-2.364-5.353-5.36-5.466h-.038c-.338-.001-2.882-.002-7.633-.002zm3.65 1.61h3.828c2.166 0 3.922 1.729 3.922 3.86 0 2.075-1.666 3.776-3.774 3.858h-4.157a.207.207 0 01-.207-.208v-2.64c0-.115.093-.208.207-.208h4.01a.81.81 0 00.816-.804.81.81 0 00-.817-.804h-5.436a.414.414 0 00-.414.414l-.001 9.585a1.54 1.54 0 01-1.55 1.627 1.54 1.54 0 01-1.552-1.529c0-.045 0-.056-.002-.086V11.431c0-.114.093-.207.207-.207h4.92z"></path></g></svg>